<svg height='100px' width='100px'  fill="#0f466b" xmlns="http://www.w3.org/2000/svg" viewBox="0 0 32 32" x="0px" y="0px"><g><path d="M17,4V7.973a1,1,0,0,1-2,0V4a1,1,0,0,1,2,0Zm3.969,8.031a1,1,0,0,0,.707-.293l3.516-3.516a1,1,0,1,0-1.414-1.414l-3.516,3.516a1,1,0,0,0,.707,1.707ZM28,15H23.027a1,1,0,0,0,0,2H28a1,1,0,0,0,0-2Zm-6.324,5.262a1,1,0,0,0-1.414,1.414l3.516,3.516a1,1,0,0,0,1.414-1.414ZM16,22.027a1,1,0,0,0-1,1V28a1,1,0,0,0,2,0V23.027A1,1,0,0,0,16,22.027ZM7.5,23.09l-.688.688a1,1,0,1,0,1.414,1.414L8.91,24.5A1,1,0,0,0,7.5,23.09ZM6.973,16a1,1,0,0,0-1-1H4a1,1,0,0,0,0,2H5.973A1,1,0,0,0,6.973,16ZM8.222,6.808A1,1,0,0,0,6.808,8.222l2.1,2.1A1,1,0,1,0,10.324,8.91Z"></path></g></svg>