<svg xmlns="http://www.w3.org/2000/svg" xmlns:xlink="http://www.w3.org/1999/xlink" version="1.1" x="0px" y="0px" viewBox="0 0 55 55" style="enable-background:new 0 0 55 55;" xml:space="preserve"><g><g><g><path fill="#FFF" d="M45.5,50.5205078c-0.2763672,0-0.5-0.2236328-0.5-0.5V21.9882813C45,12.6210938,37.296875,5,27.828125,5h-0.6552734     C17.7041016,5,10,12.6210938,10,21.9882813v28.0322266c0,0.2763672-0.2236328,0.5-0.5,0.5s-0.5-0.2236328-0.5-0.5V21.9882813     C9,12.0693359,17.1523438,4,27.1728516,4h0.6552734C37.8476563,4,46,12.0693359,46,21.9882813v28.0322266     C46,50.296875,45.7763672,50.5205078,45.5,50.5205078z"></path></g><g><g><path fill="#FFF" d="M21.5,51c-0.2763672,0-0.5-0.2236328-0.5-0.5c0-3.1494141-2.4677734-5.7119141-5.5-5.7119141S10,47.3505859,10,50.5      c0,0.2763672-0.2236328,0.5-0.5,0.5S9,50.7763672,9,50.5c0-3.7011719,2.9160156-6.7119141,6.5-6.7119141S22,46.7988281,22,50.5      C22,50.7763672,21.7763672,51,21.5,51z"></path></g><g><path fill="#FFF" d="M33.5,51c-0.2763672,0-0.5-0.2236328-0.5-0.5c0-3.1494141-2.4677734-5.7119141-5.5-5.7119141S22,47.3505859,22,50.5      c0,0.2763672-0.2236328,0.5-0.5,0.5S21,50.7763672,21,50.5c0-3.7011719,2.9160156-6.7119141,6.5-6.7119141      S34,46.7988281,34,50.5C34,50.7763672,33.7763672,51,33.5,51z"></path></g><g><path fill="#FFF" d="M45.5,51c-0.2763672,0-0.5-0.2236328-0.5-0.5c0-3.1494141-2.4677734-5.7119141-5.5-5.7119141S34,47.3505859,34,50.5      c0,0.2763672-0.2236328,0.5-0.5,0.5S33,50.7763672,33,50.5c0-3.7011719,2.9160156-6.7119141,6.5-6.7119141      S46,46.7988281,46,50.5C46,50.7763672,45.7763672,51,45.5,51z"></path></g></g></g><g><g><path fill="#FFF" d="M35.1474609,27.2705078c-2.2451172,0-4.0722656-2.3017578-4.0722656-5.1308594     c0-2.8300781,1.8271484-5.1318359,4.0722656-5.1318359c2.2460938,0,4.0732422,2.3017578,4.0732422,5.1318359     C39.2207031,24.96875,37.3935547,27.2705078,35.1474609,27.2705078z M35.1474609,18.0078125     c-1.6943359,0-3.0722656,1.8535156-3.0722656,4.1318359c0,2.2773438,1.3779297,4.1308594,3.0722656,4.1308594     s3.0732422-1.8535156,3.0732422-4.1308594C38.2207031,19.8613281,36.8417969,18.0078125,35.1474609,18.0078125z"></path></g><g><path fill="#FFF" d="M19.8525391,27.2705078c-2.2451172,0-4.0722656-2.3017578-4.0722656-5.1308594     c0-2.8300781,1.8271484-5.1318359,4.0722656-5.1318359c2.2460938,0,4.0732422,2.3017578,4.0732422,5.1318359     C23.9257813,24.96875,22.0986328,27.2705078,19.8525391,27.2705078z M19.8525391,18.0078125     c-1.6943359,0-3.0722656,1.8535156-3.0722656,4.1318359c0,2.2773438,1.3779297,4.1308594,3.0722656,4.1308594     s3.0732422-1.8535156,3.0732422-4.1308594C22.9257813,19.8613281,21.546875,18.0078125,19.8525391,18.0078125z"></path></g></g></g></svg>
