<svg xmlns:dc="http://purl.org/dc/elements/1.1/" xmlns:cc="http://creativecommons.org/ns#" xmlns:rdf="http://www.w3.org/1999/02/22-rdf-syntax-ns#" xmlns:svg="http://www.w3.org/2000/svg" xmlns="http://www.w3.org/2000/svg" xmlns:sodipodi="http://sodipodi.sourceforge.net/DTD/sodipodi-0.dtd" xmlns:inkscape="http://www.inkscape.org/namespaces/inkscape" viewBox="0 0 48 48.000001" version="1.1" x="0px" y="0px"><g transform="translate(0,-1004.3622)"><path style="color:#000000;font-style:normal;font-variant:normal;font-weight:normal;font-stretch:normal;font-size:medium;line-height:normal;font-family:sans-serif;text-indent:0;text-align:start;text-decoration:none;text-decoration-line:none;text-decoration-style:solid;text-decoration-color:#000000;letter-spacing:normal;word-spacing:normal;text-transform:none;direction:ltr;block-progression:tb;writing-mode:lr-tb;baseline-shift:baseline;text-anchor:start;white-space:normal;clip-rule:nonzero;display:inline;overflow:visible;visibility:visible;opacity:1;isolation:auto;mix-blend-mode:normal;color-interpolation:sRGB;color-interpolation-filters:linearRGB;solid-color:#000000;solid-opacity:1;fill:#000000;fill-opacity:1;fill-rule:evenodd;stroke:none;stroke-width:1.06539404;stroke-linecap:round;stroke-linejoin:round;stroke-miterlimit:4;stroke-dasharray:none;stroke-dashoffset:0;stroke-opacity:1;color-rendering:auto;image-rendering:auto;shape-rendering:auto;text-rendering:auto;enable-background:accumulate" d="m 31.151298,1032.983 a 0.53267903,0.53267903 0 0 0 -0.464782,0.2812 l -0.837779,1.5135 a 0.53267903,0.53267903 0 0 0 -0.06054,0.1718 l -0.595624,3.6518 -1.509563,4.1812 a 0.53267903,0.53267903 0 0 0 -0.01953,0.287 l 0.580001,2.8825 a 0.53293771,0.53293771 0 0 0 1.044782,-0.211 l -0.552661,-2.7378 1.476365,-4.0874 a 0.53267903,0.53267903 0 0 0 0.02539,-0.096 l 0.587812,-3.607 0.792863,-1.4334 a 0.53267903,0.53267903 0 0 0 -0.466734,-0.7967 z"></path><path style="color:#000000;font-style:normal;font-variant:normal;font-weight:normal;font-stretch:normal;font-size:medium;line-height:normal;font-family:sans-serif;text-indent:0;text-align:start;text-decoration:none;text-decoration-line:none;text-decoration-style:solid;text-decoration-color:#000000;letter-spacing:normal;word-spacing:normal;text-transform:none;direction:ltr;block-progression:tb;writing-mode:lr-tb;baseline-shift:baseline;text-anchor:start;white-space:normal;clip-rule:nonzero;display:inline;overflow:visible;visibility:visible;opacity:1;isolation:auto;mix-blend-mode:normal;color-interpolation:sRGB;color-interpolation-filters:linearRGB;solid-color:#000000;solid-opacity:1;fill:#000000;fill-opacity:1;fill-rule:evenodd;stroke:none;stroke-width:1.06539404;stroke-linecap:round;stroke-linejoin:round;stroke-miterlimit:4;stroke-dasharray:none;stroke-dashoffset:0;stroke-opacity:1;color-rendering:auto;image-rendering:auto;shape-rendering:auto;text-rendering:auto;enable-background:accumulate" d="m 27.27291,1004.4497 c -0.685802,0.2277 -1.133939,0.7637 -1.462695,1.2361 -0.526674,0.7567 -0.741005,1.6285 -0.919799,2.4138 -0.503795,2.2127 0.02795,4.4184 -0.542896,6.2238 -0.06223,0.1968 -0.288695,0.6126 -0.496027,0.9374 -0.03808,0.06 -0.03677,0.052 -0.07226,0.1053 -0.133936,-0.1219 -0.284694,-0.2619 -0.320269,-0.3124 -0.43657,-0.619 -0.803321,-1.2955 -0.828016,-1.9099 -0.003,-0.076 0.0341,-0.2013 0.124984,-0.3945 0.09089,-0.1931 0.231113,-0.4401 0.289024,-0.7752 0.166961,-0.9667 -0.03936,-1.8249 0.06249,-2.5115 0.04379,-0.295 0.194693,-0.6408 0.353468,-1.0369 0.158776,-0.3962 0.329226,-0.8551 0.294882,-1.3924 -0.03409,-0.5315 -0.171295,-1.1946 -0.726465,-1.6267 -0.529337,-0.4126 -1.155361,-0.356 -1.611112,-0.2891 -0.296609,0.043 -0.649296,0.1036 -0.997914,0.2403 -0.348617,0.1366 -0.714489,0.363 -0.935422,0.7596 -1.036268,1.8603 -1.141507,4.3908 -1.390439,6.4972 -0.08523,0.7221 -0.16101,1.4934 -0.05858,2.2848 0.204912,1.5838 1.055121,2.855 1.204918,4.1011 0.160073,1.3316 0.387999,2.694 -0.117172,3.6011 -0.206791,0.3711 -0.737012,0.6941 -1.24788,0.8182 -0.610068,0.1482 -1.340738,0.1116 -1.726331,-0.1738 0.0056,0 -0.03924,-0.053 -0.08983,-0.2539 -0.05059,-0.2003 -0.08813,-0.5101 -0.335893,-0.8144 -0.230685,-0.2832 -0.508141,-0.4239 -0.716702,-0.5389 -0.208559,-0.1151 -0.349693,-0.2055 -0.415959,-0.2832 -0.129891,-0.1524 -0.233022,-0.4086 -0.349562,-0.7343 -0.116542,-0.3256 -0.247855,-0.7231 -0.568284,-1.0701 -0.28595,-0.3096 -0.658952,-0.5116 -0.984243,-0.6855 -0.325292,-0.1738 -0.601482,-0.2949 -0.601482,-0.2949 a 0.53267903,0.53267903 0 0 0 -0.619058,0.1445 l -0.703031,0.8339 a 0.53267903,0.53267903 0 0 0 -0.124983,0.3769 c 0,0 0.08356,1.5031 0.2734,2.3766 0.192505,0.8859 0.613746,1.7666 1.017443,2.5017 0.388586,0.7075 0.886487,1.2062 1.300607,1.7088 0.688315,0.8352 2.079545,2.3475 2.095423,2.3648 9e-5,10e-5 0.01172,0.014 0.01172,0.014 l 3.536636,4.5521 -0.769428,7.0733 -2.112999,3.6421 a 0.53291383,0.53291383 0 0 0 0.921752,0.5351 l 2.169632,-3.7398 a 0.53267903,0.53267903 0 0 0 0.06835,-0.2108 l 0.804579,-7.3975 a 0.53267903,0.53267903 0 0 0 -0.10936,-0.3847 l -3.696771,-4.7572 a 0.53267903,0.53267903 0 0 0 -0.02734,-0.033 c 0,0 -1.426233,-1.5544 -2.070035,-2.3357 -0.453954,-0.5507 -0.887385,-0.9949 -1.189295,-1.5446 -0.379156,-0.6904 -0.75644,-1.5078 -0.910034,-2.2145 -0.132193,-0.6084 -0.20975,-1.7782 -0.226532,-2.0155 l 0.287071,-0.3397 c 0.07668,0.038 0.07888,0.034 0.171852,0.084 0.284419,0.1519 0.61577,0.3742 0.703031,0.4686 0.131344,0.1423 0.235156,0.3873 0.349562,0.707 0.114407,0.3197 0.238662,0.7115 0.540943,1.0663 0.234615,0.2752 0.507439,0.412 0.712796,0.5253 0.205358,0.1133 0.341876,0.2027 0.404243,0.2792 0.01898,0.023 0.07167,0.1679 0.130842,0.4023 0.05917,0.2344 0.142041,0.5929 0.486262,0.8476 0.790232,0.5847 1.806642,0.5492 2.612932,0.3534 0.727913,-0.1768 1.506797,-0.5841 1.925524,-1.3358 0.765141,-1.3738 0.396473,-2.978 0.244108,-4.2455 -0.190979,-1.5886 -1.04349,-2.863 -1.204917,-4.1108 -0.08197,-0.6333 -0.02265,-1.3184 0.06054,-2.0231 0.255039,-2.1581 0.420736,-4.5953 1.26155,-6.1047 0.05662,-0.1016 0.180256,-0.2012 0.394478,-0.285 0.214222,-0.084 0.497868,-0.1405 0.765523,-0.1797 0.348301,-0.051 0.686776,-0.011 0.798721,0.076 a 0.53267903,0.53267903 0 0 0 0.002,0 c 0.152583,0.1188 0.293039,0.4918 0.316363,0.8554 0.01679,0.2626 -0.07473,0.5635 -0.220673,0.9275 -0.14594,0.3642 -0.342039,0.779 -0.415959,1.2773 -0.14274,0.9622 0.05813,1.8121 -0.05858,2.4879 -0.01868,0.1081 -0.09774,0.276 -0.203097,0.5 -0.105361,0.2238 -0.24151,0.5184 -0.226533,0.8923 0.03921,0.9757 0.544463,1.804 1.021348,2.4802 0.178835,0.2535 0.408946,0.4478 0.611246,0.6171 0.202299,0.1693 0.37495,0.2969 0.37495,0.2969 a 0.53267903,0.53267903 0 0 0 0.745994,-0.1153 c 0,0 0.200614,-0.2752 0.427677,-0.6307 0.227064,-0.3556 0.48335,-0.7745 0.615152,-1.1913 0.692333,-2.1896 0.139526,-4.4332 0.566331,-6.3077 0.173805,-0.7634 0.37601,-1.4971 0.755758,-2.0427 0.272686,-0.3919 0.610299,-0.7298 0.923704,-0.8339 0.136951,-0.045 0.39198,-0.023 0.619059,0.064 0.293233,0.1134 0.537382,0.2956 0.585858,0.4061 0.110417,0.2518 0.09659,0.5717 0.01172,0.9902 -0.08487,0.4183 -0.240596,0.9012 -0.269495,1.4412 -0.06686,1.249 0.01365,2.4555 -0.09765,3.5991 -0.08971,0.9234 -0.494343,1.929 -0.513603,3.0894 -0.01075,0.6234 0.195285,1.4979 0.195285,1.4979 a 0.53267903,0.53267903 0 0 0 0.330034,0.3885 l 0.894413,0.3438 a 0.53267903,0.53267903 0 0 0 0.417912,-0.014 l 0.980338,-0.4608 a 0.53267903,0.53267903 0 0 0 0.246061,-0.2344 c 0,0 0.742378,-1.4224 1.107273,-2.152 0.151645,-0.3034 0.505321,-0.6929 0.611247,-1.3065 0.07085,-0.4102 0.01853,-0.8253 -0.130843,-1.201 -0.113681,-0.2861 -0.274451,-0.3733 -0.372997,-0.4472 0.02708,-0.071 0.05153,-0.1481 0.156229,-0.2383 0.139921,-0.1206 0.34292,-0.2143 0.482358,-0.2402 0.234727,-0.043 0.683488,0.146 0.947139,0.416 0.28306,0.2897 0.451722,0.8412 0.492122,1.3767 0.05358,0.7108 -0.15083,1.4527 -0.412055,2.2536 -0.261225,0.801 -0.577758,1.6529 -0.632727,2.5934 -0.02171,0.3692 -0.224968,1.038 0.224579,1.6482 0.439206,0.5962 1.159713,0.8148 1.816163,0.7636 0.815395,-0.064 1.532998,-0.5443 1.980204,-1.1795 0.342693,-0.4868 0.382273,-1.056 0.335893,-1.5369 -0.03721,-0.3834 -0.226001,-0.6323 -0.337846,-0.8104 -0.111237,-0.1772 -0.142493,-0.2687 -0.142559,-0.2871 -10e-7,-1e-4 -2e-6,0 0,0 0.0053,-0.1417 0.105644,-0.2965 0.07421,-0.2772 0.06399,-0.039 0.37544,-0.033 0.537038,0.062 0.10999,0.065 0.267728,0.3252 0.351515,0.6249 0.167467,0.5987 0.104232,1.3266 -0.04686,2.0329 -0.215759,1.0071 -0.763777,1.9843 -1.296702,3.0054 -0.978916,1.8759 -2.585733,3.5312 -3.534683,5.6789 -0.598391,1.3545 -0.582416,2.765 -1.074075,3.812 -0.375874,0.8004 -0.77065,1.5748 -1.333806,1.9783 -0.533481,0.3823 -1.307878,0.5448 -2.058318,0.5605 -0.829798,0.017 -1.691409,-0.09 -2.224312,-0.4941 -0.0041,0 -0.18882,-0.2501 -0.29293,-0.4765 -0.10411,-0.2264 -0.169899,-0.4238 -0.169899,-0.4238 a 0.53267903,0.53267903 0 1 0 -1.011583,0.3339 c 0,0 0.08341,0.2494 0.214815,0.5352 0.131404,0.2857 0.268793,0.6163 0.615152,0.8787 0.867903,0.6576 1.970255,0.7318 2.890239,0.7129 0.880141,-0.018 1.858238,-0.1901 2.655894,-0.7616 0.868863,-0.6227 1.300251,-1.587 1.67751,-2.3904 0.632607,-1.3472 0.61499,-2.7698 1.085792,-3.8354 0.846532,-1.916 2.428123,-3.5559 3.503438,-5.6165 0.520182,-0.9966 1.13234,-2.0519 1.394345,-3.2749 0.167725,-0.7839 0.276066,-1.6743 0.03319,-2.5426 -0.116588,-0.4169 -0.311814,-0.946 -0.837779,-1.2557 -0.465409,-0.2747 -1.080193,-0.3939 -1.636499,-0.053 -0.480213,0.2947 -0.572265,0.7806 -0.58,1.1677 -0.0061,0.4013 0.184012,0.6788 0.304646,0.871 0.120635,0.1921 0.176397,0.314 0.179664,0.3476 0.03064,0.3177 -0.02897,0.6533 -0.146466,0.8202 -0.267044,0.3793 -0.781318,0.6982 -1.193199,0.7304 -0.308028,0.024 -0.735977,-0.1454 -0.874883,-0.334 -0.06497,-0.088 -0.047,-0.4526 -0.01758,-0.953 0.04287,-0.7336 0.311928,-1.5039 0.58,-2.3258 0.268071,-0.8219 0.535318,-1.7022 0.462829,-2.6637 -0.05121,-0.6789 -0.229794,-1.4643 -0.792863,-2.0408 -0.454755,-0.4656 -1.133598,-0.8631 -1.904042,-0.7206 -0.359367,0.067 -0.69583,0.2355 -0.982291,0.4824 -0.28646,0.2468 -0.536971,0.5893 -0.576095,1.0311 -0.0178,0.2014 0.05936,0.3988 0.142559,0.5195 0.0832,0.1206 0.166428,0.1895 0.230438,0.2441 0.128021,0.1092 0.159652,0.177 0.124984,0.09 0.07699,0.1936 0.103841,0.4327 0.0703,0.6269 -0.04044,0.2342 -0.281332,0.5451 -0.513603,1.0096 -0.327218,0.6544 -0.920056,1.7877 -1.017442,1.9744 l -0.609294,0.287 -0.390572,-0.1503 c -0.04742,-0.2664 -0.140806,-0.748 -0.136701,-0.9862 0.01494,-0.8998 0.400196,-1.8764 0.509697,-3.0035 0.122642,-1.2602 0.03931,-2.4832 0.101549,-3.646 0.01888,-0.3528 0.148529,-0.7965 0.248014,-1.2869 0.09949,-0.4905 0.168613,-1.0618 -0.08007,-1.6287 -0.251073,-0.5725 -0.77325,-0.817 -1.175625,-0.9726 -0.383949,-0.1483 -0.854933,-0.2411 -1.339664,-0.08 z"></path><path style="color:#000000;font-style:normal;font-variant:normal;font-weight:normal;font-stretch:normal;font-size:medium;line-height:normal;font-family:sans-serif;text-indent:0;text-align:start;text-decoration:none;text-decoration-line:none;text-decoration-style:solid;text-decoration-color:#000000;letter-spacing:normal;word-spacing:normal;text-transform:none;direction:ltr;block-progression:tb;writing-mode:lr-tb;baseline-shift:baseline;text-anchor:start;white-space:normal;clip-rule:nonzero;display:inline;overflow:visible;visibility:visible;opacity:1;isolation:auto;mix-blend-mode:normal;color-interpolation:sRGB;color-interpolation-filters:linearRGB;solid-color:#000000;solid-opacity:1;fill:#000000;fill-opacity:1;fill-rule:evenodd;stroke:none;stroke-width:1.06539404;stroke-linecap:round;stroke-linejoin:round;stroke-miterlimit:4;stroke-dasharray:none;stroke-dashoffset:0;stroke-opacity:1;color-rendering:auto;image-rendering:auto;shape-rendering:auto;text-rendering:auto;enable-background:accumulate" d="m 24.191291,1022.166 a 0.53267903,0.53267903 0 0 0 -0.451111,0.828 l 2.288756,3.5563 c 0.01385,0.04 0.130936,0.379 0.261684,0.8572 0.138223,0.5056 0.265492,1.1339 0.261684,1.4432 -0.0063,0.5085 -0.185044,1.0617 -0.414008,1.613 -0.218972,0.5276 -0.941055,1.5775 -1.054546,1.744 -0.200049,0.074 -1.463676,0.5472 -2.124715,0.7011 -0.606188,0.1411 -1.179258,0.2696 -1.700945,0.246 -0.215254,-0.01 -0.670548,-0.108 -1.035018,-0.207 -0.364471,-0.099 -0.652256,-0.1933 -0.652256,-0.1933 a 0.53267903,0.53267903 0 1 0 -0.33394,1.0116 c 0,0 0.312628,0.1038 0.706936,0.2109 0.394309,0.107 0.855301,0.2218 1.265457,0.2402 0.719755,0.032 1.387129,-0.1307 1.99192,-0.2714 0.898091,-0.209 2.425457,-0.7968 2.425457,-0.7968 a 0.53267903,0.53267903 0 0 0 0.246061,-0.1914 c 0,0 0.893441,-1.2272 1.249833,-2.0857 0.247842,-0.5968 0.486823,-1.2723 0.496027,-2.0095 0.0068,-0.5553 -0.150301,-1.193 -0.298788,-1.736 -0.148488,-0.5432 -0.298789,-0.9746 -0.298788,-0.9746 a 0.53267903,0.53267903 0 0 0 -0.05663,-0.1132 l -2.327814,-3.6226 a 0.53267903,0.53267903 0 0 0 -0.445253,-0.25 z"></path><path style="color:#000000;font-style:normal;font-variant:normal;font-weight:normal;font-stretch:normal;font-size:medium;line-height:normal;font-family:sans-serif;text-indent:0;text-align:start;text-decoration:none;text-decoration-line:none;text-decoration-style:solid;text-decoration-color:#000000;letter-spacing:normal;word-spacing:normal;text-transform:none;direction:ltr;block-progression:tb;writing-mode:lr-tb;baseline-shift:baseline;text-anchor:start;white-space:normal;clip-rule:nonzero;display:inline;overflow:visible;visibility:visible;opacity:1;isolation:auto;mix-blend-mode:normal;color-interpolation:sRGB;color-interpolation-filters:linearRGB;solid-color:#000000;solid-opacity:1;fill:#000000;fill-opacity:1;fill-rule:evenodd;stroke:none;stroke-width:1.06539404;stroke-linecap:round;stroke-linejoin:round;stroke-miterlimit:4;stroke-dasharray:none;stroke-dashoffset:0;stroke-opacity:1;color-rendering:auto;image-rendering:auto;shape-rendering:auto;text-rendering:auto;enable-background:accumulate" d="m 31.147392,1022.6699 a 0.53267903,0.53267903 0 0 0 -0.396432,0.2089 c 0,0 -0.118989,0.15 -0.277307,0.3262 -0.158317,0.1762 -0.375315,0.3792 -0.447205,0.4257 -0.199721,0.1295 -0.614636,0.1659 -1.120944,0.4023 -0.630305,0.2942 -1.262509,0.6323 -1.849362,1.0584 -0.393271,0.2856 -0.888553,0.8026 -0.888553,0.8026 a 0.53267903,0.53267903 0 1 0 0.755758,0.7499 c 0,0 0.553732,-0.5417 0.759665,-0.6913 0.508544,-0.3692 1.079614,-0.6758 1.673604,-0.9529 0.258009,-0.1204 0.740842,-0.1444 1.249832,-0.4746 0.267766,-0.1736 0.477226,-0.4058 0.660068,-0.6093 0.182843,-0.2035 0.32027,-0.3768 0.32027,-0.3768 a 0.53267903,0.53267903 0 0 0 -0.439394,-0.8691 z"></path><path style="color:#000000;font-style:normal;font-variant:normal;font-weight:normal;font-stretch:normal;font-size:medium;line-height:normal;font-family:sans-serif;text-indent:0;text-align:start;text-decoration:none;text-decoration-line:none;text-decoration-style:solid;text-decoration-color:#000000;letter-spacing:normal;word-spacing:normal;text-transform:none;direction:ltr;block-progression:tb;writing-mode:lr-tb;baseline-shift:baseline;text-anchor:start;white-space:normal;clip-rule:nonzero;display:inline;overflow:visible;visibility:visible;opacity:1;isolation:auto;mix-blend-mode:normal;color-interpolation:sRGB;color-interpolation-filters:linearRGB;solid-color:#000000;solid-opacity:1;fill:#000000;fill-opacity:1;fill-rule:evenodd;stroke:none;stroke-width:1.06539404;stroke-linecap:round;stroke-linejoin:round;stroke-miterlimit:4;stroke-dasharray:none;stroke-dashoffset:0;stroke-opacity:1;color-rendering:auto;image-rendering:auto;shape-rendering:auto;text-rendering:auto;enable-background:accumulate" d="m 15.381922,1043.0812 a 0.53267903,0.53267903 0 0 0 -0.32808,0.1367 l -1.767342,1.5838 a 0.53267903,0.53267903 0 0 0 -0.169899,0.3105 l -0.3066,1.8669 -0.208957,-0.053 -1.21468,-0.4745 a 0.53267903,0.53267903 0 0 0 -0.724513,0.5409 l 0.06835,0.8007 -0.228486,0.5272 a 0.53267903,0.53267903 0 0 0 -0.04296,0.207 l -0.8338725,0 a 0.53267903,0.53267903 0 0 0 -0.5136032,0.3946 l -0.3612788,1.3419 a 0.53267903,0.53267903 0 0 0 0.019528,0.3378 l 0.4433001,1.0975 a 0.53267903,0.53267903 0 0 0 0.3222225,0.3066 l 0.8436369,0.2832 a 0.53267903,0.53267903 0 0 0 0.308553,0.01 l 3.058185,-0.8221 1.849362,0.3437 a 0.53267903,0.53267903 0 0 0 0.210909,0 l 3.065996,-0.6699 3.107007,0.5898 a 0.53267903,0.53267903 0 0 0 0.1367,0.01 l 3.362831,-0.2363 2.964447,0.828 a 0.53267903,0.53267903 0 0 0 0.22458,0.014 c 0,0 0.921917,-0.1425 1.863031,-0.2793 0.470557,-0.068 0.946701,-0.1346 1.310372,-0.1816 0.181836,-0.023 0.336196,-0.042 0.4433,-0.053 0.05355,-0.01 0.09552,-0.01 0.117172,-0.01 0.02074,0 0.06614,0.024 -0.08593,-0.014 0.231539,0.058 0.268881,0.011 0.345656,-0.01 0.07678,-0.016 0.151378,-0.038 0.230439,-0.062 0.158121,-0.05 0.334551,-0.1141 0.505792,-0.1797 0.342482,-0.1312 0.660068,-0.2676 0.660068,-0.2676 a 0.53267903,0.53267903 0 0 0 0.09569,-0.9275 l -2.144244,-1.4842 -0.3066,-0.9335 0.144511,-1.0565 a 0.53267903,0.53267903 0 0 0 -0.173804,-0.4706 l -1.325995,-1.1775 a 0.53267903,0.53267903 0 0 0 -0.499933,-0.1153 l -1.284984,0.3671 a 0.53267903,0.53267903 0 0 0 -0.142559,0.065 l -0.613199,0.3945 -0.36128,-0.207 a 0.53267903,0.53267903 0 0 0 -0.675691,0.125 l -0.326129,0.3944 -1.904041,-1.0154 a 0.53267903,0.53267903 0 0 0 -0.578048,0.051 l -1.232257,0.9628 -0.558519,-0.9042 a 0.53267903,0.53267903 0 0 0 -0.173805,-0.1737 l -1.325994,-0.8124 a 0.53267903,0.53267903 0 0 0 -0.300741,-0.078 l -1.968487,0.08 a 0.53267903,0.53267903 0 0 0 -0.265589,0.084 l -0.581953,0.3749 -0.525321,-0.3691 -0.380808,-0.7362 a 0.53267903,0.53267903 0 0 0 -0.244109,-0.2363 L 15.6397,1043.135 a 0.53267903,0.53267903 0 0 0 -0.257779,-0.053 z m 0.119125,1.1659 0.281213,0.1348 0.359327,0.6952 a 0.53267903,0.53267903 0 0 0 0.167946,0.1913 l 0.923705,0.6504 a 0.53267903,0.53267903 0 0 0 0.59367,0.012 l 0.76357,-0.4902 1.661887,-0.068 1.07798,0.662 0.384715,0.6231 -0.238249,0.5116 a 0.53267903,0.53267903 0 0 0 0.761616,0.6796 l 0.923704,-0.5703 a 0.53267903,0.53267903 0 0 0 0.04687,-0.033 l 1.134613,-0.8846 1.98411,1.0565 a 0.53267903,0.53267903 0 0 0 0.662021,-0.1308 l 0.316364,-0.3848 0.253872,0.1426 a 0.53267903,0.53267903 0 0 0 0.550707,-0.014 l 0.818251,-0.5272 0.92761,-0.2637 0.896364,0.7948 -0.123031,0.8983 a 0.53267903,0.53267903 0 0 0 0.02148,0.2383 l 0.402291,1.2205 a 0.53267903,0.53267903 0 0 0 0.203097,0.2715 l 1.464648,1.0135 c -0.04893,0.017 -0.109603,0.042 -0.15037,0.055 -0.06028,0.019 -0.110713,0.032 -0.132796,0.037 -0.02209,0 -0.05857,-0.036 0.132796,0.012 l 0.002,0 c -0.199398,-0.051 -0.17835,-0.02 -0.228485,-0.018 -0.05013,0 -0.10311,0.01 -0.165993,0.014 -0.125767,0.013 -0.287304,0.033 -0.474546,0.057 -0.374482,0.048 -0.852519,0.1167 -1.325995,0.1855 -0.888663,0.1292 -1.653871,0.2457 -1.757577,0.2617 l -2.942965,-0.8221 a 0.53267903,0.53267903 0 0 0 -0.181617,-0.019 l -3.386266,0.2401 -3.146063,-0.5976 a 0.53267903,0.53267903 0 0 0 -0.21091,0 l -3.069901,0.6679 -1.863033,-0.3456 a 0.53267903,0.53267903 0 0 0 -0.234342,0.01 l -3.019128,0.8124 -0.45697,-0.1543 -0.2851184,-0.705 0.2089564,-0.7752 1.681416,0 a 0.53267903,0.53267903 0 0 0 0.314411,-0.9628 l -0.378855,-0.2774 0.111313,-0.2596 a 0.53267903,0.53267903 0 0 0 0.04296,-0.2579 l -0.0078,-0.08 0.447206,0.1738 a 0.53267903,0.53267903 0 0 0 0.06249,0.021 l 0.804579,0.2031 a 0.53267903,0.53267903 0 0 0 0.656162,-0.4297 l 0.371045,-2.2555 1.363098,-1.2225 z"></path></g></svg>