<?xml version="1.0" encoding="utf-8"?>
<!-- Generator: Adobe Illustrator 22.1.0, SVG Export Plug-In . SVG Version: 6.00 Build 0)  -->
<svg version="1.1" id="Layer_1" xmlns="http://www.w3.org/2000/svg" xmlns:xlink="http://www.w3.org/1999/xlink" x="0px" y="0px"
	 viewBox="0 0 100 100" style="enable-background:new 0 0 100 100;" xml:space="preserve">
<g>
	<path d="M79.9,4.2H20.1c-0.4,0-0.8,0.3-0.8,0.8v7.3c0,0.4,0.3,0.8,0.8,0.8h5.6v82c0,0.4,0.3,0.8,0.8,0.8h7.3h32.7h7.3
		c0.4,0,0.8-0.3,0.8-0.8V13h5.6c0.4,0,0.8-0.3,0.8-0.8V5C80.7,4.6,80.4,4.2,79.9,4.2z M27.1,13h5.8v7v29.4V74v10.5v9.7h-5.8V13z
		 M49.3,13v6.2H34.4V13H49.3z M56.5,83.8C56.1,80.5,53.4,78,50,78c-3.4,0-6.1,2.5-6.5,5.8h-9.1v-9h31.2v9
		C65.6,83.8,56.5,83.8,56.5,83.8z M55.1,84.5c0,2.8-2.3,5.1-5.1,5.1s-5.1-2.3-5.1-5.1c0-2.8,2.3-5.1,5.1-5.1
		C52.8,79.5,55.1,81.7,55.1,84.5z M65.6,20.8v9.3l-31.2,18V20.8H65.6z M65.6,73.3H34.4V49.8l31.2-18V73.3z M65.6,19.3H50.8V13h14.8
		V19.3z M34.4,85.3h9.1c0.4,3.3,3.1,5.8,6.5,5.8c3.4,0,6.1-2.5,6.5-5.8h9.1v9H34.4V85.3z M72.9,94.2h-5.8v-9.7V74V30.5V20v-7h5.8
		C72.9,13,72.9,94.2,72.9,94.2z M79.2,11.5h-5.6h-7.3H33.7h-7.3h-5.6V5.8h58.4C79.2,5.8,79.2,11.5,79.2,11.5z"/>
	<rect x="34.6" y="33.4" transform="matrix(0.866 -0.5001 0.5001 0.866 -10.3989 29.5884)" width="30.7" height="1.5"/>
</g>
</svg>
