<?xml version="1.0" encoding="UTF-8"?>
<svg width="600" height="535" version="1.1" xmlns="http://www.w3.org/2000/svg">
 <path d="m299.75 238.48c-26.326-51.007-97.736-146.28-164.21-193.17-63.677-44.919-88.028-37.186-103.82-29.946-18.428 8.3915-21.719 36.692-21.719 53.311s9.0496 136.57 15.138 156.48c19.745 66.145 89.674 88.522 154.17 81.282 3.2908-0.49362 6.5816-0.98723 10.037-1.3163-3.2908 0.49362-6.7461 0.98723-10.037 1.3163-94.445 13.986-178.52 48.374-68.284 170.96 121.1 125.38 166.02-26.82 189.06-104.15 23.035 77.169 49.526 223.94 186.75 104.15 103.17-104.15 28.301-156.97-66.145-170.96-3.2908-0.32908-6.7461-0.82269-10.037-1.3163 3.4553 0.49362 6.7461 0.82269 10.037 1.3163 64.499 7.2397 134.59-15.138 154.17-81.282 5.9234-20.074 15.138-139.86 15.138-156.48s-3.2908-44.919-21.719-53.311c-15.96-7.2397-40.148-14.973-103.82 29.946-66.967 47.058-138.38 142.16-164.7 193.17z" fill="#fafafa"/>
</svg>
