<svg height='100px' width='100px'  fill="#1f8dd6" xmlns="http://www.w3.org/2000/svg" xmlns:xlink="http://www.w3.org/1999/xlink" version="1.1" viewBox="0 0 96 96" x="0px" y="0px"><path d="M86 84h-76c-5.512 0-10-4.488-10-10v-52c0-5.512 4.488-10 10-10h76c5.512 0 10 4.488 10 10v52c0 5.512-4.488 10-10 10zM10 16c-3.308 0-6 2.692-6 6v52c0 3.308 2.692 6 6 6h76c3.308 0 6-2.692 6-6v-52c0-3.308-2.692-6-6-6h-76z" fill="#1f8dd6"></path><path d="M48 60.12c-4.056 0-7.848-1.7-10.68-4.772l-34.224-37.42c-0.744-0.816-0.688-2.080 0.128-2.828 0.812-0.744 2.080-0.688 2.828 0.128l34.22 37.416c4.12 4.48 11.336 4.484 15.464-0.004l34.048-37.252c0.752-0.82 2.012-0.868 2.828-0.128 0.82 0.748 0.876 2.008 0.132 2.828l-34.056 37.252c-2.84 3.080-6.632 4.78-10.688 4.78z" fill="#1f8dd6"></path><path d="M4.472 81.532c-0.54 0-1.084-0.22-1.476-0.652-0.748-0.816-0.688-2.084 0.128-2.828l31.328-28.608c0.816-0.744 2.084-0.692 2.828 0.128 0.748 0.816 0.688 2.084-0.128 2.824l-31.328 28.608c-0.388 0.352-0.872 0.528-1.352 0.528z" fill="#1f8dd6"></path><path d="M91.368 81.368c-0.484 0-0.96-0.172-1.348-0.524l-31.164-28.444c-0.816-0.744-0.876-2.008-0.128-2.824 0.752-0.82 2.016-0.876 2.828-0.128l31.164 28.444c0.812 0.752 0.876 2.012 0.124 2.824-0.4 0.432-0.936 0.652-1.476 0.652z" fill="#1f8dd6"></path></svg>