<svg xmlns:dc="http://purl.org/dc/elements/1.1/" xmlns:cc="http://creativecommons.org/ns#" xmlns:rdf="http://www.w3.org/1999/02/22-rdf-syntax-ns#" xmlns:svg="http://www.w3.org/2000/svg" xmlns="http://www.w3.org/2000/svg" xmlns:sodipodi="http://sodipodi.sourceforge.net/DTD/sodipodi-0.dtd" xmlns:inkscape="http://www.inkscape.org/namespaces/inkscape" version="1.1" x="0px" y="0px" viewBox="0 0 100 100"><g transform="translate(0,-952.36218)"><path style="font-size:medium;font-style:normal;font-variant:normal;font-weight:normal;font-stretch:normal;text-indent:0;text-align:start;text-decoration:none;line-height:normal;letter-spacing:normal;word-spacing:normal;text-transform:none;direction:ltr;block-progression:tb;writing-mode:lr-tb;text-anchor:start;baseline-shift:baseline;opacity:1;color:#000000;fill:#000000;fill-opacity:1;stroke:none;stroke-width:2;marker:none;visibility:visible;display:inline;overflow:visible;enable-background:accumulate;font-family:Sans;-inkscape-font-specification:Sans" d="M 50 5 C 30.645132 5 15 20.07884 15 38.84375 L 15 93 L 10 93 A 1.0001 1.0001 0 0 0 9.8125 93 A 1.0043849 1.0043849 0 0 0 10 95 L 90 95 A 1.0001 1.0001 0 1 0 90 93 L 85 93 L 85 38.84375 C 85 20.07884 69.354858 5 50 5 z M 50 7 C 68.317142 7 83 21.18916 83 38.84375 L 83 93 L 17 93 L 17 38.84375 C 17 21.18916 31.682848 7 50 7 z M 37.8125 39 A 1.0043849 1.0043849 0 0 0 38 41 L 62 41 A 1.0001 1.0001 0 1 0 62 39 L 38 39 A 1.0001 1.0001 0 0 0 37.8125 39 z M 28.8125 52 A 1.0043849 1.0043849 0 0 0 29 54 L 71 54 A 1.0001 1.0001 0 1 0 71 52 L 29 52 A 1.0001 1.0001 0 0 0 28.8125 52 z M 37.8125 65 A 1.0043849 1.0043849 0 0 0 38 67 L 62 67 A 1.0001 1.0001 0 1 0 62 65 L 38 65 A 1.0001 1.0001 0 0 0 37.8125 65 z " transform="translate(0,952.36218)"></path></g></svg>