<?xml version="1.0" encoding="utf-8"?>
<!-- Generator: Adobe Illustrator 23.0.3, SVG Export Plug-In . SVG Version: 6.00 Build 0)  -->
<svg fill="#fff" version="1.1" id="Layer_1" xmlns="http://www.w3.org/2000/svg" xmlns:xlink="http://www.w3.org/1999/xlink" x="0px" y="0px"
	 viewBox="0 0 100 100" style="enable-background:new 0 0 100 100;" xml:space="preserve">
<path d="M93.9,6.9c0-0.3-0.2-0.6-0.5-0.8c-0.3-0.1-0.6-0.1-0.9,0c0,0-14.8,9.2-14.9,9.2l-70,70.5C6.6,86.7,6,88.1,6,89.4
	c0,1.3,0.5,2.6,1.5,3.6c0.1,0.1,1.7,1.8,3.6,0.6c7.4-5.2,24.6-21.6,24.6-21.6l0,0l1.8-1.8l8.3,8.4c0.2,0.2,0.4,0.4,0.7,0.4l0,0
	c0.3,0,0.5-0.3,0.7-0.5l34.5-42.8C93.8,19.7,94.3,12.7,93.9,6.9z M31.4,64.6l4.9,4.9c0,0-19.7,18.7-26.1,23.2
	c-1.1,0.8-2.5-1.5-2.6-1.5c-1.1-1.9,0.5-3.9,0.5-3.9 M80.3,34.5L46.4,76.3L34.5,64.4l-1.5-1.5l45.8-45.8L92,8.6
	C92.2,13.8,90.7,20.5,80.3,34.5z"/>
<path d="M28.9,84.4"/>
<path d="M29.8,86"/>
<path d="M14.5,91.2"/>
<path d="M30.3,84.4"/>
<path d="M34,86"/>
</svg>
